<?xml version="1.0" encoding="utf-8"?>
<!-- Generator: Adobe Illustrator 28.0.0, SVG Export Plug-In . SVG Version: 6.00 Build 0)  -->
<svg version="1.1" id="Layer_1" xmlns="http://www.w3.org/2000/svg" xmlns:xlink="http://www.w3.org/1999/xlink" x="0px" y="0px"
	 viewBox="0 0 190.3 111.9" style="enable-background:new 0 0 190.3 111.9;" xml:space="preserve">
<style type="text/css">
	.st0{fill:#FF9571;}
	.st1{fill:#414141;}
	.st2{fill-rule:evenodd;clip-rule:evenodd;fill:#FF9571;}
</style>
<path class="st0" d="M125.1,30.3c-0.7-1.3-1.5-3-2.5-5.2c-1-2.2-2-4.6-3-7.3c-1-2.7-2-5.5-2.9-8.3c0.3-0.4,0.6-0.7,1.1-1
	c0.5-0.2,1-0.4,1.5-0.4c0.7,0,1.2,0.2,1.7,0.5s0.8,1,1.1,1.8c1.2,3.4,2.5,6.7,3.8,10s2.8,6.8,4.4,10.3h0.2c0.8-1.7,1.7-3.8,2.6-6.3
	s1.8-5.2,2.6-8s1.5-5.4,2.1-7.9c0.3-0.1,0.6-0.2,0.9-0.3c0.4-0.1,0.7-0.2,1.1-0.2c0.7,0,1.2,0.2,1.7,0.5c0.4,0.3,0.7,0.8,0.7,1.5
	c0,0.6-0.2,1.7-0.5,3.2c-0.4,1.5-0.9,3.2-1.5,5.2c-0.6,2-1.3,4.1-2.2,6.3c-0.8,2.2-1.7,4.4-2.6,6.5c-0.9,2.1-1.9,4-2.8,5.8
	c-1.8,3.4-3.5,6-5,7.8c-1.5,1.8-2.9,2.8-4.2,2.8c-0.9,0-1.6-0.2-2.2-0.7c-0.5-0.5-0.8-1-0.9-1.7c0.9-0.8,1.9-1.8,2.9-3.1
	c1.1-1.2,2.2-2.6,3.2-4.1c1-1.4,1.9-2.8,2.5-4.1c-0.7-0.2-1.3-0.6-1.9-1.1C126.4,32.6,125.8,31.7,125.1,30.3z M115.4,29.1
	c0,2.6-0.9,4.6-2.8,6s-4.6,2.2-8.2,2.2c-3,0-5.5-0.5-7.4-1.4c-1.9-1-2.9-2-2.9-3.1c0-0.5,0.1-0.9,0.4-1.4c0.3-0.5,0.7-0.9,1.2-1.1
	c1.1,0.8,2.3,1.5,3.8,2.1c1.4,0.6,3.1,1,4.9,1c4.2,0,6.2-1.4,6.2-4.2c0-1.2-0.4-2.1-1.1-2.8c-0.7-0.8-1.7-1.3-3.1-1.6l-5-1.3
	c-2.4-0.6-4.2-1.5-5.3-2.8c-1.1-1.3-1.7-2.9-1.7-4.7c0-2.1,0.9-4,2.6-5.5s4.3-2.3,7.9-2.3c1.9,0,3.5,0.2,4.9,0.6
	c1.4,0.4,2.5,0.9,3.2,1.5c0.8,0.6,1.2,1.3,1.2,2c0,0.5-0.1,1-0.4,1.4c-0.2,0.4-0.6,0.7-1,0.9c-0.5-0.3-1.1-0.7-1.9-1
	c-0.7-0.4-1.6-0.7-2.6-1c-1-0.3-2.1-0.4-3.3-0.4c-1.8,0-3.2,0.3-4.3,1s-1.6,1.6-1.6,2.9c0,0.9,0.3,1.7,0.9,2.3
	c0.6,0.6,1.6,1.1,3,1.4l4.1,1c2.7,0.6,4.8,1.7,6.1,3.1C114.8,25.1,115.4,26.9,115.4,29.1z M78.2,33.4c1.7,0,3.1-0.2,4.1-0.5
	c1.1-0.4,1.9-0.7,2.4-1v-8.7l-7.4,0.8c-2.1,0.2-3.6,0.6-4.6,1.4s-1.5,1.9-1.5,3.3s0.6,2.6,1.7,3.5C74.2,32.9,75.9,33.4,78.2,33.4z
	 M78.2,37.3c-3.8,0-6.7-0.7-8.8-2.2c-2-1.5-3.1-3.6-3.1-6.4c0-2.6,0.9-4.6,2.6-5.9c1.8-1.4,4.2-2.2,7.3-2.5l8.5-0.8v-1.7
	c0-2-0.6-3.5-1.8-4.4c-1.2-0.9-2.8-1.4-4.9-1.4c-1.6,0-3.2,0.2-4.7,0.7c-1.5,0.5-2.8,1-4,1.6c-0.3-0.3-0.6-0.6-0.9-1
	c-0.2-0.4-0.4-0.8-0.4-1.2c0-1,0.6-1.8,1.7-2.4c1.1-0.6,2.3-1,3.7-1.3c1.4-0.3,3-0.5,4.6-0.5c3.5,0,6.2,0.8,8.3,2.3s3.1,4,3.1,7.4
	v14.2c0,0.9-0.2,1.6-0.5,2c-0.3,0.4-0.8,0.9-1.5,1.3c-1,0.5-2.2,1-3.8,1.4S80.2,37.3,78.2,37.3z M42.3,4.1V0h19.9
	c0.1,0.2,0.2,0.4,0.4,0.8c0.1,0.4,0.2,0.7,0.2,1.1c0,0.6-0.2,1.2-0.5,1.6c-0.3,0.4-0.8,0.6-1.4,0.6C60.9,4.1,42.3,4.1,42.3,4.1z
	 M42.3,36.5v-4.1h20.2c0.1,0.2,0.2,0.4,0.4,0.8c0.1,0.3,0.2,0.7,0.2,1.1c0,0.6-0.2,1.2-0.5,1.6s-0.8,0.6-1.4,0.6
	C61.2,36.5,42.3,36.5,42.3,36.5z M42.3,19.8v-4.1h18.1c0.1,0.2,0.2,0.4,0.4,0.8c0.1,0.4,0.2,0.7,0.2,1.1c0,0.6-0.2,1.2-0.5,1.6
	s-0.8,0.6-1.4,0.6H42.3z M44.6,21.6l-4.9-0.1V2.6c0-0.8,0.2-1.4,0.7-1.9S41.5,0,42.3,0c0.4,0,0.9,0.1,1.3,0.2
	c0.4,0.1,0.7,0.2,0.9,0.3V21.6z M39.7,14.5h4.9V36c-0.2,0-0.5,0.1-0.9,0.3c-0.4,0.1-0.9,0.2-1.3,0.2c-0.8,0-1.4-0.2-1.9-0.7
	c-0.5-0.5-0.7-1.2-0.7-1.9C39.7,33.8,39.7,14.5,39.7,14.5z"/>
<path class="st1" d="M173.4,86.9c1.5,0,2.8-0.6,3.9-1.7s1.6-2.4,1.6-3.8c0-1.5-0.5-2.8-1.6-3.9c-1.1-1.1-2.3-1.6-3.8-1.6
	s-2.8,0.5-3.9,1.6c-1.1,1-1.6,2.2-1.6,3.7v0.2c0,1.5,0.5,2.8,1.6,3.9C170.6,86.3,171.9,86.9,173.4,86.9L173.4,86.9z M156.3,68h11.6
	v4.8c1.8-3.7,4.8-5.6,9-5.6c2.5,0,4.7,0.6,6.8,1.9c2.1,1.2,3.7,2.9,4.9,5.1c1.2,2.2,1.8,4.6,1.8,7.3s-0.6,5.1-1.9,7.3
	c-1.2,2.2-2.9,3.9-5,5.1c-2,1.2-4.2,1.8-6.6,1.8c-4.2,0-7.2-1.8-9-5.6v12.3l-11.6,2.2L156.3,68L156.3,68z M133.7,86.9
	c1.5,0,2.7-0.5,3.7-1.5c1.1-1.1,1.6-2.3,1.7-3.7v-0.4c-0.1-1.5-0.7-2.7-1.8-3.7c-1.1-1-2.3-1.5-3.7-1.5c-1.5,0-2.9,0.6-4,1.7
	c-1.1,1.1-1.6,2.3-1.6,3.8s0.6,2.8,1.6,3.9C130.9,86.3,132.2,86.9,133.7,86.9L133.7,86.9z M130.1,95.6c-2.4,0-4.6-0.6-6.7-1.9
	c-2.1-1.3-3.7-3-4.9-5.2c-1.2-2.2-1.9-4.6-1.9-7.3s0.6-5,1.9-7.2c1.2-2.2,2.9-3.8,5-5.1c2.1-1.2,4.3-1.8,6.6-1.8
	c1.9,0,3.7,0.5,5.3,1.6c1.6,1.1,2.9,2.7,3.7,4.8v-6.4h11.6v27.9h-11.6V90C137.3,93.7,134.3,95.6,130.1,95.6L130.1,95.6z M105.9,95.6
	c-2.9,0-5.5-0.6-7.8-1.8c-2.2-1.2-4-2.9-5.3-5.1c-1.2-2.2-1.9-4.6-1.9-7.4s0.7-5,2-7.2c1.3-2.2,3.1-3.9,5.4-5.1s4.8-1.9,7.6-1.9
	c3.6,0,6.4,0.7,8.4,2.2l-1,7.3c-2.1-0.6-3.8-0.9-5.2-0.9c-1.8,0-3.1,0.5-4.2,1.5c-1,1-1.5,2.3-1.5,4.1s0.5,3.1,1.5,4.1
	c1,1,2.4,1.5,4.1,1.5c1.5,0,3.2-0.3,5.2-0.9l1,7.7c-1.2,0.6-2.5,1.1-3.8,1.3C109.2,95.4,107.7,95.5,105.9,95.6L105.9,95.6z
	 M81.2,95.6c-3.1,0-5.5-1-7.3-2.9c-1.7-2-2.5-4.7-2.5-8.1V58.9l11.6-1.7v26.6c0,1,0.2,1.8,0.7,2.2c0.5,0.4,1.4,0.7,2.6,0.7
	c0.9,0,1.8-0.2,2.7-0.7l0.4,7.7C87,94.9,84.3,95.6,81.2,95.6L81.2,95.6z M51.6,87.3c1.5,0,2.7-0.5,3.7-1.7c1-1.1,1.5-2.6,1.5-4.3
	s-0.5-3.2-1.5-4.3c-0.9-1.1-2.2-1.7-3.7-1.7s-2.8,0.6-3.7,1.7c-0.9,1.1-1.4,2.5-1.4,4.3s0.5,3.2,1.4,4.3
	C48.9,86.8,50.1,87.3,51.6,87.3z M51.5,95.6c-3.1,0-5.8-0.6-8.2-1.8c-2.4-1.2-4.2-2.9-5.6-5c-1.3-2.2-2-4.6-2-7.4s0.7-5.2,2-7.4
	c1.4-2.2,3.2-3.8,5.6-5c2.4-1.2,5.2-1.8,8.2-1.8s5.9,0.6,8.2,1.8c2.4,1.2,4.3,2.8,5.6,5c1.3,2.1,2,4.6,2,7.4s-0.7,5.3-2,7.5
	c-1.3,2.1-3.2,3.8-5.6,5C57.4,95,54.6,95.6,51.5,95.6L51.5,95.6z M0,57.3h12.4l5.8,23.6l5.8-23.6h13L25.2,95.1h-14L0,57.3L0,57.3z"
	/>
<path class="st2" d="M112.9,59.1c-0.6-1.2-0.2-2.7,1-3.3c13.7-7.3,26-11.3,35.6-12.2c9.5-0.9,17.4,1.3,20.8,7.6
	c1.8,3.4,1.5,7.3,0,11.1c-1.5,3.9-4.2,8-7.9,12.1c-7.4,8.2-18.8,17-32.5,24.3c-13.7,7.3-27.6,11.3-38.5,12.8
	c-5.5,0.7-11.7,0.2-14.1-0.6c-3.2-1-4.4-1.8-5.6-3c-1-1-2-2.9-2-4.4s0.2-1.9,0.5-2c0.6-0.1,0.7,1.5,1.7,2.6c1.2,1.4,3.1,2.6,6.3,3.4
	c3.2,0.8,7.6,0.5,12.7-0.2c10.3-1.4,23.3-5.8,36.7-12.9s24.3-15.5,31.2-23.2c3.5-3.9,5.8-7.5,7-10.6c1.2-3.1,1.1-5.4,0.2-7.1
	c-1.9-3.6-7-5.9-16-5c-8.8,0.8-20.4,4.6-33.8,11.7C115,60.8,113.5,60.3,112.9,59.1L112.9,59.1z"/>
<path class="st0" d="M110.5,61.3c0.3-3.6,0.8-7.9,4.7-11.2c-1.2,3-1.3,7-1.2,9.2L110.5,61.3z"/>
<path class="st0" d="M110.5,61.3c2.9,1.1,6.5,2.4,11.2,0.6c-3-0.2-6.1-1.7-7.7-2.6L110.5,61.3z"/>
</svg>
