<?xml version="1.0" encoding="UTF-8"?>
<svg id="Layer_1" data-name="Layer 1" xmlns="http://www.w3.org/2000/svg" viewBox="0 0 295.14 68.41">
  <defs>
    <style>
      .cls-1, .cls-2 {
        fill: #ff9571;
      }

      .cls-3 {
        fill: #414141;
      }

      .cls-2 {
        fill-rule: evenodd;
      }
    </style>
  </defs>
  <path class="cls-1" d="m85.37,45.51c-.68-1.28-1.5-3-2.46-5.16-.96-2.2-1.96-4.64-3-7.32-1-2.72-1.96-5.48-2.88-8.28.28-.4.64-.72,1.08-.96.48-.24.98-.36,1.5-.36.68,0,1.24.18,1.68.54.44.36.8.96,1.08,1.8,1.2,3.36,2.46,6.7,3.78,10.02,1.32,3.32,2.78,6.76,4.38,10.32h.24c.84-1.68,1.72-3.78,2.64-6.3.92-2.52,1.8-5.18,2.64-7.98.84-2.8,1.54-5.44,2.1-7.92.28-.12.58-.22.9-.3.36-.12.74-.18,1.14-.18.68,0,1.24.18,1.68.54.44.32.66.82.66,1.5,0,.64-.18,1.72-.54,3.24-.36,1.48-.86,3.22-1.5,5.22-.6,1.96-1.32,4.06-2.16,6.3-.8,2.2-1.68,4.38-2.64,6.54-.92,2.12-1.86,4.04-2.82,5.76-1.84,3.4-3.52,6-5.04,7.8-1.52,1.84-2.92,2.76-4.2,2.76-.92,0-1.64-.24-2.16-.72-.48-.48-.78-1.04-.9-1.68.88-.76,1.86-1.78,2.94-3.06,1.12-1.24,2.18-2.6,3.18-4.08,1.04-1.44,1.88-2.82,2.52-4.14-.68-.2-1.32-.56-1.92-1.08-.56-.52-1.2-1.46-1.92-2.82Zm-9.64-1.2c0,2.56-.94,4.56-2.82,6-1.88,1.44-4.6,2.16-8.16,2.16-3.04,0-5.52-.46-7.44-1.38-1.92-.96-2.88-2-2.88-3.12,0-.48.12-.94.36-1.38.28-.48.68-.86,1.2-1.14,1.08.76,2.34,1.46,3.78,2.1,1.44.64,3.08.96,4.92.96,4.16,0,6.24-1.4,6.24-4.2,0-1.16-.36-2.1-1.08-2.82-.68-.76-1.7-1.3-3.06-1.62l-4.98-1.32c-2.44-.6-4.22-1.52-5.34-2.76-1.12-1.28-1.68-2.86-1.68-4.74,0-2.12.86-3.96,2.58-5.52,1.72-1.56,4.34-2.34,7.86-2.34,1.88,0,3.52.2,4.92.6,1.4.36,2.48.86,3.24,1.5.8.6,1.2,1.26,1.2,1.98,0,.52-.14.98-.42,1.38-.24.4-.58.7-1.02.9-.48-.32-1.1-.66-1.86-1.02-.72-.4-1.58-.72-2.58-.96-1-.28-2.1-.42-3.3-.42-1.76,0-3.18.34-4.26,1.02-1.08.68-1.62,1.64-1.62,2.88,0,.88.3,1.66.9,2.34.64.64,1.64,1.12,3,1.44l4.14,1.02c2.72.64,4.76,1.66,6.12,3.06,1.36,1.36,2.04,3.16,2.04,5.4Zm-37.2,4.26c1.68,0,3.06-.16,4.14-.48,1.12-.36,1.92-.7,2.4-1.02v-8.7l-7.44.78c-2.08.16-3.62.62-4.62,1.38s-1.5,1.86-1.5,3.3.58,2.64,1.74,3.48c1.2.84,2.96,1.26,5.28,1.26Zm0,3.96c-3.76,0-6.68-.74-8.76-2.22-2.04-1.48-3.06-3.62-3.06-6.42,0-2.6.86-4.58,2.58-5.94,1.76-1.4,4.18-2.24,7.26-2.52l8.52-.84v-1.68c0-2-.6-3.46-1.8-4.38s-2.82-1.38-4.86-1.38c-1.64,0-3.22.24-4.74.72-1.48.48-2.8,1.02-3.96,1.62-.32-.28-.62-.6-.9-.96-.24-.4-.36-.8-.36-1.2,0-1.04.58-1.84,1.74-2.4,1.08-.56,2.32-.98,3.72-1.26,1.44-.32,2.96-.48,4.56-.48,3.48,0,6.24.78,8.28,2.34,2.04,1.56,3.06,4.02,3.06,7.38v14.22c0,.88-.18,1.56-.54,2.04-.32.44-.82.86-1.5,1.26-.96.52-2.24,1-3.84,1.44-1.6.44-3.4.66-5.4.66ZM2.64,19.35v-4.14h19.92c.12.16.24.42.36.78.12.36.18.74.18,1.14,0,.64-.16,1.18-.48,1.62-.32.4-.78.6-1.38.6H2.64Zm0,32.34v-4.08h20.22c.12.16.24.42.36.78.12.32.18.7.18,1.14,0,.64-.16,1.16-.48,1.56-.32.4-.78.6-1.38.6H2.64Zm0-16.68v-4.08h18.06c.12.16.24.42.36.78.12.36.18.74.18,1.14,0,.64-.16,1.16-.48,1.56-.32.4-.78.6-1.38.6H2.64Zm2.22,1.8l-4.86-.06v-18.9c0-.8.24-1.44.72-1.92.48-.48,1.12-.72,1.92-.72.44,0,.88.06,1.32.18.44.12.74.22.9.3v21.12ZM0,29.73h4.86v21.48c-.16.04-.46.14-.9.3-.44.12-.88.18-1.32.18-.8,0-1.44-.24-1.92-.72-.48-.52-.72-1.16-.72-1.92v-19.32Z"/>
  <path class="cls-3" d="m278.2,43.44c1.5,0,2.79-.55,3.85-1.65,1.06-1.1,1.6-2.38,1.6-3.85,0-1.54-.55-2.84-1.65-3.91-1.06-1.06-2.33-1.6-3.8-1.6s-2.79.53-3.85,1.6c-1.06,1.03-1.6,2.25-1.6,3.69v.22c0,1.54.53,2.84,1.6,3.9,1.1,1.06,2.38,1.59,3.85,1.59Zm-17.1-18.92h11.6v4.78c1.76-3.7,4.75-5.55,8.97-5.55,2.46,0,4.71.62,6.76,1.87,2.09,1.21,3.72,2.9,4.89,5.06,1.21,2.16,1.82,4.58,1.82,7.26s-.62,5.1-1.87,7.26c-1.21,2.16-2.86,3.87-4.95,5.12-2.05,1.21-4.25,1.81-6.6,1.81-4.18,0-7.19-1.85-9.02-5.56v12.27l-11.6,2.2V24.52Zm-22.57,18.92c1.47,0,2.71-.51,3.74-1.54,1.06-1.06,1.63-2.31,1.71-3.74v-.44c-.07-1.47-.66-2.71-1.76-3.74-1.06-1.03-2.29-1.54-3.69-1.54-1.54,0-2.86.55-3.96,1.65-1.06,1.06-1.6,2.35-1.6,3.85s.55,2.84,1.65,3.9c1.1,1.06,2.4,1.59,3.9,1.59Zm-3.57,8.69c-2.38,0-4.62-.62-6.71-1.87-2.05-1.28-3.7-3.01-4.95-5.17-1.25-2.2-1.87-4.64-1.87-7.32s.62-5.02,1.87-7.15c1.25-2.16,2.91-3.85,5.01-5.06,2.09-1.21,4.31-1.81,6.65-1.81,1.91,0,3.67.53,5.28,1.59,1.65,1.06,2.9,2.66,3.74,4.79v-6.38h11.55v27.94h-11.55v-5.12c-1.83,3.7-4.84,5.56-9.02,5.56Zm-24.19,0c-2.93,0-5.54-.59-7.81-1.76-2.24-1.21-4-2.9-5.28-5.06-1.25-2.16-1.87-4.62-1.87-7.37s.66-5.04,1.98-7.21c1.32-2.16,3.12-3.87,5.39-5.12,2.27-1.25,4.8-1.87,7.59-1.87,3.56,0,6.36.73,8.42,2.2l-1.04,7.32c-2.09-.62-3.81-.94-5.17-.94-1.76,0-3.15.51-4.18,1.54-1.03.99-1.54,2.35-1.54,4.07s.51,3.1,1.54,4.12c1.03,1.03,2.38,1.54,4.07,1.54,1.47,0,3.19-.31,5.17-.94l1.04,7.7c-1.25.62-2.51,1.06-3.79,1.32-1.28.29-2.79.44-4.51.44Zm-24.69,0c-3.12,0-5.54-.97-7.26-2.91-1.69-1.98-2.53-4.68-2.53-8.08V15.44l11.6-1.7v26.56c0,1.03.24,1.78.71,2.25.51.44,1.39.66,2.64.66.92,0,1.82-.22,2.7-.66l.38,7.7c-2.46,1.25-5.21,1.87-8.25,1.87Zm-29.59-8.25c1.5,0,2.73-.55,3.68-1.65.99-1.14,1.49-2.59,1.49-4.34s-.49-3.19-1.49-4.29c-.95-1.14-2.18-1.7-3.68-1.7s-2.75.57-3.74,1.7c-.95,1.1-1.43,2.53-1.43,4.29s.48,3.21,1.43,4.34c.99,1.1,2.24,1.65,3.74,1.65Zm-.11,8.25c-3.08,0-5.83-.6-8.25-1.81-2.38-1.21-4.25-2.88-5.61-5.01-1.32-2.16-1.98-4.64-1.98-7.42s.68-5.24,2.03-7.37c1.36-2.16,3.23-3.83,5.61-5.01,2.42-1.17,5.17-1.76,8.25-1.76s5.87.6,8.25,1.81c2.42,1.17,4.29,2.82,5.61,4.95,1.32,2.13,1.98,4.58,1.98,7.37s-.68,5.32-2.04,7.48c-1.32,2.13-3.19,3.8-5.61,5.01-2.38,1.17-5.13,1.76-8.25,1.76ZM104.84,13.85h12.43l5.83,23.59,5.83-23.59h12.98l-11.82,37.84h-14.02l-11.22-37.84Z"/>
  <path class="cls-2" d="m217.74,15.7c-.63-1.19-.19-2.67.99-3.29,13.71-7.29,25.98-11.33,35.63-12.22,9.48-.87,17.39,1.26,20.78,7.64,1.79,3.36,1.49,7.27.02,11.12-1.47,3.86-4.23,7.96-7.91,12.08-7.37,8.25-18.8,16.96-32.52,24.26-13.73,7.3-27.58,11.28-38.54,12.78-5.47.74-11.71.17-14.06-.55-3.19-.99-4.41-1.84-5.63-3.01-1.04-1-2-2.93-2-4.43,0-1.5.22-1.94.5-2,.56-.12.74,1.48,1.66,2.62,1.16,1.44,3.08,2.62,6.34,3.38,3.24.75,7.6.48,12.74-.22,10.27-1.4,23.33-5.78,36.69-12.88,13.36-7.1,24.3-15.49,31.2-23.22,3.46-3.87,5.81-7.48,7-10.59,1.19-3.12,1.11-5.43.24-7.06-1.92-3.61-7.03-5.88-16.02-5.05-8.81.81-20.45,4.57-33.83,11.68-1.18.63-2.65.17-3.28-1.02Z"/>
  <path class="cls-1" d="m215.3,17.85c.29-3.59.78-7.87,4.67-11.17-1.22,2.96-1.27,6.99-1.17,9.23l-3.5,1.94Z"/>
  <path class="cls-1" d="m215.3,17.85c2.91,1.13,6.46,2.37,11.22.64-2.96-.19-6.07-1.67-7.72-2.58l-3.5,1.94Z"/>
</svg>