<?xml version="1.0" encoding="utf-8"?>
<!-- Generator: Adobe Illustrator 28.0.0, SVG Export Plug-In . SVG Version: 6.00 Build 0)  -->
<svg version="1.1" id="Layer_1" xmlns="http://www.w3.org/2000/svg" xmlns:xlink="http://www.w3.org/1999/xlink" x="0px" y="0px"
	 viewBox="0 0 217.9 217.9" style="enable-background:new 0 0 217.9 217.9;" xml:space="preserve">
<style type="text/css">
	.st0{fill:#EFEFEF;}
	.st1{fill:#FF9571;}
	.st2{fill:#414141;}
	.st3{fill-rule:evenodd;clip-rule:evenodd;fill:#FF9571;}
</style>
<path class="st0" d="M184.9,217.9H33c-18.2,0-33-14.8-33-33V33C0,14.8,14.8,0,33,0h151.9c18.2,0,33,14.8,33,33v151.9
	C217.9,203.1,203.1,217.9,184.9,217.9z"/>
<path class="st1" d="M141,86.3c-0.7-1.3-1.5-3-2.5-5.2c-1-2.2-2-4.6-3-7.3c-1-2.7-2-5.5-2.9-8.3c0.3-0.4,0.6-0.7,1.1-1
	c0.5-0.2,1-0.4,1.5-0.4c0.7,0,1.2,0.2,1.7,0.5c0.5,0.3,0.8,1,1.1,1.8c1.2,3.4,2.5,6.7,3.8,10s2.8,6.8,4.4,10.3h0.2
	c0.8-1.7,1.7-3.8,2.6-6.3s1.8-5.2,2.6-8c0.8-2.8,1.5-5.4,2.1-7.9c0.3-0.1,0.6-0.2,0.9-0.3c0.4-0.1,0.7-0.2,1.1-0.2
	c0.7,0,1.2,0.2,1.7,0.5c0.4,0.3,0.7,0.8,0.7,1.5c0,0.6-0.2,1.7-0.5,3.2c-0.4,1.5-0.9,3.2-1.5,5.2s-1.3,4.1-2.2,6.3
	c-0.8,2.2-1.7,4.4-2.6,6.5c-0.9,2.1-1.9,4-2.8,5.8c-1.8,3.4-3.5,6-5,7.8c-1.5,1.8-2.9,2.8-4.2,2.8c-0.9,0-1.6-0.2-2.2-0.7
	c-0.5-0.5-0.8-1-0.9-1.7c0.9-0.8,1.9-1.8,2.9-3.1c1.1-1.2,2.2-2.6,3.2-4.1c1-1.4,1.9-2.8,2.5-4.1c-0.7-0.2-1.3-0.6-1.9-1.1
	C142.3,88.6,141.7,87.7,141,86.3z M131.3,85.1c0,2.6-0.9,4.6-2.8,6c-1.9,1.4-4.6,2.2-8.2,2.2c-3,0-5.5-0.5-7.4-1.4
	c-1.9-1-2.9-2-2.9-3.1c0-0.5,0.1-0.9,0.4-1.4s0.7-0.9,1.2-1.1c1.1,0.8,2.3,1.5,3.8,2.1c1.4,0.6,3.1,1,4.9,1c4.2,0,6.2-1.4,6.2-4.2
	c0-1.2-0.4-2.1-1.1-2.8c-0.7-0.8-1.7-1.3-3.1-1.6l-5-1.3c-2.4-0.6-4.2-1.5-5.3-2.8c-1.1-1.3-1.7-2.9-1.7-4.7c0-2.1,0.9-4,2.6-5.5
	s4.3-2.3,7.9-2.3c1.9,0,3.5,0.2,4.9,0.6s2.5,0.9,3.2,1.5c0.8,0.6,1.2,1.3,1.2,2c0,0.5-0.1,1-0.4,1.4c-0.2,0.4-0.6,0.7-1,0.9
	c-0.5-0.3-1.1-0.7-1.9-1c-0.7-0.4-1.6-0.7-2.6-1c-1-0.3-2.1-0.4-3.3-0.4c-1.8,0-3.2,0.3-4.3,1c-1.1,0.7-1.6,1.6-1.6,2.9
	c0,0.9,0.3,1.7,0.9,2.3s1.6,1.1,3,1.4l4.1,1c2.7,0.6,4.8,1.7,6.1,3.1C130.7,81.1,131.3,82.9,131.3,85.1z M94.1,89.4
	c1.7,0,3.1-0.2,4.1-0.5c1.1-0.4,1.9-0.7,2.4-1v-8.7L93.2,80c-2.1,0.2-3.6,0.6-4.6,1.4c-1,0.8-1.5,1.9-1.5,3.3c0,1.4,0.6,2.6,1.7,3.5
	C90.1,88.9,91.8,89.4,94.1,89.4z M94.1,93.3c-3.8,0-6.7-0.7-8.8-2.2c-2-1.5-3.1-3.6-3.1-6.4c0-2.6,0.9-4.6,2.6-5.9
	c1.8-1.4,4.2-2.2,7.3-2.5l8.5-0.8v-1.7c0-2-0.6-3.5-1.8-4.4C97.6,68.5,96,68,93.9,68c-1.6,0-3.2,0.2-4.7,0.7s-2.8,1-4,1.6
	c-0.3-0.3-0.6-0.6-0.9-1c-0.2-0.4-0.4-0.8-0.4-1.2c0-1,0.6-1.8,1.7-2.4s2.3-1,3.7-1.3c1.4-0.3,3-0.5,4.6-0.5c3.5,0,6.2,0.8,8.3,2.3
	s3.1,4,3.1,7.4v14.2c0,0.9-0.2,1.6-0.5,2s-0.8,0.9-1.5,1.3c-1,0.5-2.2,1-3.8,1.4S96.1,93.3,94.1,93.3z M58.2,60.1V56h19.9
	c0.1,0.2,0.2,0.4,0.4,0.8c0.1,0.4,0.2,0.7,0.2,1.1c0,0.6-0.2,1.2-0.5,1.6c-0.3,0.4-0.8,0.6-1.4,0.6C76.8,60.1,58.2,60.1,58.2,60.1z
	 M58.2,92.5v-4.1h20.2c0.1,0.2,0.2,0.4,0.4,0.8c0.1,0.3,0.2,0.7,0.2,1.1c0,0.6-0.2,1.2-0.5,1.6c-0.3,0.4-0.8,0.6-1.4,0.6
	C77.1,92.5,58.2,92.5,58.2,92.5z M58.2,75.8v-4.1h18.1c0.1,0.2,0.2,0.4,0.4,0.8c0.1,0.4,0.2,0.7,0.2,1.1c0,0.6-0.2,1.2-0.5,1.6
	c-0.3,0.4-0.8,0.6-1.4,0.6H58.2z M60.5,77.6l-4.9-0.1V58.6c0-0.8,0.2-1.4,0.7-1.9s1.1-0.7,1.9-0.7c0.4,0,0.9,0.1,1.3,0.2
	c0.4,0.1,0.7,0.2,0.9,0.3L60.5,77.6L60.5,77.6z M55.6,70.5h4.9V92c-0.2,0-0.5,0.1-0.9,0.3c-0.4,0.1-0.9,0.2-1.3,0.2
	c-0.8,0-1.4-0.2-1.9-0.7s-0.7-1.2-0.7-1.9C55.6,89.8,55.6,70.5,55.6,70.5z"/>
<path class="st2" d="M189.3,142.9c1.5,0,2.8-0.6,3.9-1.7c1.1-1.1,1.6-2.4,1.6-3.8c0-1.5-0.5-2.8-1.6-3.9c-1.1-1.1-2.3-1.6-3.8-1.6
	s-2.8,0.5-3.9,1.6c-1.1,1-1.6,2.2-1.6,3.7v0.2c0,1.5,0.5,2.8,1.6,3.9C186.5,142.3,187.8,142.9,189.3,142.9L189.3,142.9z M172.2,124
	h11.6v4.8c1.8-3.7,4.8-5.6,9-5.6c2.5,0,4.7,0.6,6.8,1.9c2.1,1.2,3.7,2.9,4.9,5.1s1.8,4.6,1.8,7.3c0,2.7-0.6,5.1-1.9,7.3
	c-1.2,2.2-2.9,3.9-5,5.1c-2,1.2-4.2,1.8-6.6,1.8c-4.2,0-7.2-1.8-9-5.6v12.3l-11.6,2.2V124L172.2,124z M149.6,142.9
	c1.5,0,2.7-0.5,3.7-1.5c1.1-1.1,1.6-2.3,1.7-3.7v-0.4c-0.1-1.5-0.7-2.7-1.8-3.7s-2.3-1.5-3.7-1.5c-1.5,0-2.9,0.6-4,1.7
	c-1.1,1.1-1.6,2.3-1.6,3.8s0.6,2.8,1.6,3.9C146.8,142.3,148.1,142.9,149.6,142.9L149.6,142.9z M146,151.6c-2.4,0-4.6-0.6-6.7-1.9
	c-2.1-1.3-3.7-3-4.9-5.2s-1.9-4.6-1.9-7.3c0-2.7,0.6-5,1.9-7.2c1.2-2.2,2.9-3.8,5-5.1c2.1-1.2,4.3-1.8,6.6-1.8
	c1.9,0,3.7,0.5,5.3,1.6s2.9,2.7,3.7,4.8v-6.4h11.6V151H155v-5C153.2,149.7,150.2,151.6,146,151.6L146,151.6z M121.8,151.6
	c-2.9,0-5.5-0.6-7.8-1.8c-2.2-1.2-4-2.9-5.3-5.1c-1.2-2.2-1.9-4.6-1.9-7.4s0.7-5,2-7.2c1.3-2.2,3.1-3.9,5.4-5.1s4.8-1.9,7.6-1.9
	c3.6,0,6.4,0.7,8.4,2.2l-1,7.3c-2.1-0.6-3.8-0.9-5.2-0.9c-1.8,0-3.1,0.5-4.2,1.5c-1,1-1.5,2.3-1.5,4.1c0,1.8,0.5,3.1,1.5,4.1
	s2.4,1.5,4.1,1.5c1.5,0,3.2-0.3,5.2-0.9l1,7.7c-1.2,0.6-2.5,1.1-3.8,1.3C125.1,151.4,123.6,151.5,121.8,151.6L121.8,151.6z
	 M97.1,151.6c-3.1,0-5.5-1-7.3-2.9c-1.7-2-2.5-4.7-2.5-8.1v-25.7l11.6-1.7v26.6c0,1,0.2,1.8,0.7,2.2c0.5,0.4,1.4,0.7,2.6,0.7
	c0.9,0,1.8-0.2,2.7-0.7l0.4,7.7C102.9,150.9,100.2,151.6,97.1,151.6L97.1,151.6z M67.5,143.3c1.5,0,2.7-0.5,3.7-1.7
	c1-1.1,1.5-2.6,1.5-4.3c0-1.7-0.5-3.2-1.5-4.3c-0.9-1.1-2.2-1.7-3.7-1.7s-2.8,0.6-3.7,1.7c-0.9,1.1-1.4,2.5-1.4,4.3s0.5,3.2,1.4,4.3
	C64.8,142.8,66,143.3,67.5,143.3z M67.4,151.6c-3.1,0-5.8-0.6-8.2-1.8s-4.2-2.9-5.6-5c-1.3-2.2-2-4.6-2-7.4s0.7-5.2,2-7.4
	c1.4-2.2,3.2-3.8,5.6-5c2.4-1.2,5.2-1.8,8.2-1.8s5.9,0.6,8.2,1.8c2.4,1.2,4.3,2.8,5.6,5c1.3,2.1,2,4.6,2,7.4s-0.7,5.3-2,7.5
	c-1.3,2.1-3.2,3.8-5.6,5C73.3,151,70.5,151.6,67.4,151.6L67.4,151.6z M15.9,113.3h12.4l5.8,23.6l5.8-23.6h13l-11.8,37.8h-14
	L15.9,113.3L15.9,113.3z"/>
<path class="st3" d="M128.8,115.1c-0.6-1.2-0.2-2.7,1-3.3c13.7-7.3,26-11.3,35.6-12.2c9.5-0.9,17.4,1.3,20.8,7.6
	c1.8,3.4,1.5,7.3,0,11.1c-1.5,3.9-4.2,8-7.9,12.1c-7.4,8.2-18.8,17-32.5,24.3s-27.6,11.3-38.5,12.8c-5.5,0.7-11.7,0.2-14.1-0.6
	c-3.2-1-4.4-1.8-5.6-3c-1-1-2-2.9-2-4.4s0.2-1.9,0.5-2c0.6-0.1,0.7,1.5,1.7,2.6c1.2,1.4,3.1,2.6,6.3,3.4c3.2,0.8,7.6,0.5,12.7-0.2
	c10.3-1.4,23.3-5.8,36.7-12.9c13.4-7.1,24.3-15.5,31.2-23.2c3.5-3.9,5.8-7.5,7-10.6s1.1-5.4,0.2-7.1c-1.9-3.6-7-5.9-16-5
	c-8.8,0.8-20.4,4.6-33.8,11.7C130.9,116.8,129.4,116.3,128.8,115.1L128.8,115.1z"/>
<path class="st1" d="M126.4,117.3c0.3-3.6,0.8-7.9,4.7-11.2c-1.2,3-1.3,7-1.2,9.2L126.4,117.3z"/>
<path class="st1" d="M126.4,117.3c2.9,1.1,6.5,2.4,11.2,0.6c-3-0.2-6.1-1.7-7.7-2.6L126.4,117.3z"/>
</svg>
